# xmcd
#
# Track frame offsets:
#	150
#	16036
#	33034
#	52162
#	65058
#	90837
#	106316
#	123183
#	149071
#	167930
#
# Disc length: 2568 seconds
# Revision: 0
# Processed by: cddbd v1.5.2PL0 Copyright (c) Steve Scherf et al.
# Submitted via: dBpowerAMP V12.0
#
DISCID=810a060a
DTITLE=Jim Singleton - 8 O' Clock in the Afternoon
DYEAR=2014
DGENRE=Blues
TTITLE0=Rattlesnake Shake
TTITLE1=Nothing to Do With Love
TTITLE2=Don't Take
TTITLE3=What's Going On
TTITLE4=Here I Go Again
TTITLE5=Don't Owe You a Thang
TTITLE6=Heart With a Mind of It's Own
TTITLE7=Place in My Heart
TTITLE8=Wicked Game
TTITLE9=A Million Miles Away
EXTD=
EXTT0=
EXTT1=
EXTT2=
EXTT3=
EXTT4=
EXTT5=
EXTT6=
EXTT7=
EXTT8=
EXTT9=
PLAYORDER=
